<svg width="48" height="48" viewBox="0 0 48 48" fill="none" xmlns="http://www.w3.org/2000/svg">
<g opacity="0.4">
<path d="M24.5 42C34.4411 42 42.5 33.9411 42.5 24C42.5 14.0589 34.4411 6 24.5 6C14.5589 6 6.5 14.0589 6.5 24C6.5 33.9411 14.5589 42 24.5 42Z" fill="url(#paint0_linear_4916_9458)"/>
<path d="M24.5 8.34782C34.0087 8.34782 41.7174 15.0055 41.7174 23.2174H42.4804C42.2646 18.5938 40.2761 14.231 36.9277 11.0352C33.5794 7.83947 29.1286 6.05641 24.5 6.05641C19.8713 6.05641 15.4206 7.83947 12.0722 11.0352C8.72387 14.231 6.73528 18.5938 6.51953 23.2174H7.28257C7.28257 15.0055 14.9913 8.34782 24.5 8.34782Z" fill="#FF6661"/>
<path d="M41.7174 23.2174C41.7174 31.4293 34.0087 38.087 24.5 38.087C14.9913 38.087 7.28261 31.4293 7.28261 23.2174H6.51957C6.50861 23.4772 6.5 23.7378 6.5 24C6.5 28.7739 8.39642 33.3523 11.7721 36.7279C15.1477 40.1036 19.7261 42 24.5 42C29.2739 42 33.8523 40.1036 37.2279 36.7279C40.6036 33.3523 42.5 28.7739 42.5 24C42.5 23.7378 42.4914 23.4772 42.4804 23.2174H41.7174Z" fill="#FF9258"/>
<path d="M34.9178 12.5046C35.1699 12.2524 35.0897 11.7636 34.7387 11.4129C34.3877 11.0621 33.8989 10.9823 33.6468 11.2345C33.3948 11.4867 33.475 11.9755 33.8259 12.3263C34.1769 12.677 34.6658 12.7569 34.9178 12.5046Z" fill="#F6FAFD"/>
<path d="M29.7058 8.66536C29.832 8.5391 29.792 8.29457 29.6165 8.1192C29.441 7.94383 29.1964 7.90403 29.0703 8.0303C28.9441 8.15657 28.9841 8.40109 29.1596 8.57646C29.335 8.75183 29.5796 8.79163 29.7058 8.66536Z" fill="#F6FAFD"/>
<path d="M33.2069 11.575C33.711 11.0706 33.5504 10.0927 32.8481 9.39092C32.1458 8.68914 31.1679 8.52918 30.6637 9.03364C30.1596 9.53811 30.3203 10.516 31.0226 11.2177C31.7248 11.9195 32.7028 12.0795 33.2069 11.575Z" fill="#F6FAFD"/>
<path d="M36.589 18.4435L35.8894 17.0426L32.028 18.9733L29.7373 20.119L29.6309 20.1722L29.6426 20.1957C29.4903 20.2973 29.3793 20.45 29.3296 20.6262C29.2426 20.9613 29.1976 21.3059 29.1957 21.6522C29.1957 23.4076 30.2264 24.7826 31.5436 24.7826C32.8607 24.7826 33.8914 23.4076 33.8914 21.6522C33.8906 21.0728 33.7616 20.5009 33.5134 19.9774L36.589 18.4435ZM19.3599 20.1926L19.3717 20.1691L19.2652 20.1159L16.9745 18.9702L13.1108 17.0387L12.4111 18.4435L15.4868 19.9813C15.2392 20.5036 15.1101 21.0742 15.1088 21.6522C15.1088 23.4076 16.1395 24.7826 17.4566 24.7826C18.7737 24.7826 19.8044 23.4076 19.8044 21.6522C19.8036 21.305 19.7594 20.9593 19.673 20.623C19.6232 20.4468 19.5122 20.2942 19.3599 20.1926Z" fill="#141E21"/>
<path d="M18.9115 20.8148C18.9851 21.0878 19.0219 21.3694 19.0211 21.6522C19.0211 22.9513 18.3168 24 17.4559 24C16.595 24 15.8907 22.9513 15.8907 21.6522C15.8768 21.2899 15.9347 20.9285 16.061 20.5888C16.1872 20.249 16.3793 19.9375 16.6263 19.6721L18.9115 20.8148ZM33.1081 21.6522C33.1081 22.9513 32.4037 24 31.5429 24C30.682 24 29.9776 22.9513 29.9776 21.6522C29.9768 21.3694 30.0137 21.0878 30.0872 20.8148L32.3724 19.6721C32.6194 19.9375 32.8116 20.249 32.9378 20.5888C33.064 20.9285 33.1219 21.2899 33.1081 21.6522Z" fill="#273941"/>
<path d="M29.978 33.3913H28.4128C28.4128 31.9732 26.6676 30.2609 24.4997 30.2609C22.3319 30.2609 20.5867 31.9732 20.5867 33.3913H19.0215C19.0215 31.175 21.3638 28.6956 24.4997 28.6956C27.6357 28.6956 29.978 31.175 29.978 33.3913Z" fill="#141E21"/>
</g>
<defs>
<linearGradient id="paint0_linear_4916_9458" x1="24.5" y1="6" x2="24.5" y2="42" gradientUnits="userSpaceOnUse">
<stop stop-color="#FE6161"/>
<stop offset="1" stop-color="#FF9956"/>
</linearGradient>
</defs>
</svg>
