<svg width="48" height="48" viewBox="0 0 48 48" fill="none" xmlns="http://www.w3.org/2000/svg">
<path d="M24 44C35.0457 44 44 35.0457 44 24C44 12.9543 35.0457 4 24 4C12.9543 4 4 12.9543 4 24C4 35.0457 12.9543 44 24 44Z" fill="url(#paint0_linear_4916_9445)"/>
<path d="M23.9997 6.60866C34.565 6.60866 43.1302 14.0061 43.1302 23.1304H43.978C43.7383 17.9931 41.5287 13.1455 37.8083 9.59467C34.088 6.04383 29.1427 4.06265 23.9997 4.06265C18.8568 4.06265 13.9115 6.04383 10.1911 9.59467C6.47075 13.1455 4.26121 17.9931 4.02148 23.1304H4.86931C4.86931 14.0061 13.4345 6.60866 23.9997 6.60866Z" fill="#FF6661"/>
<path d="M43.1304 23.1304C43.1304 32.2547 34.5652 39.6521 24 39.6521C13.4348 39.6521 4.86957 32.2547 4.86957 23.1304H4.02174C4.00957 23.4191 4 23.7087 4 24C4 29.3043 6.10714 34.3914 9.85786 38.1421C13.6086 41.8928 18.6957 44 24 44C29.3043 44 34.3914 41.8928 38.1421 38.1421C41.8929 34.3914 44 29.3043 44 24C44 23.7087 43.9904 23.4191 43.9783 23.1304H43.1304Z" fill="#FF9258"/>
<path d="M35.5766 11.2273C35.8566 10.947 35.7675 10.4039 35.3775 10.0142C34.9876 9.62451 34.4444 9.53578 34.1643 9.81604C33.8843 10.0963 33.9734 10.6394 34.3633 11.0291C34.7533 11.4188 35.2965 11.5076 35.5766 11.2273Z" fill="#F6FAFD"/>
<path d="M29.7842 6.96149C29.9244 6.82119 29.88 6.54949 29.685 6.35464C29.49 6.15978 29.2183 6.11556 29.0781 6.25586C28.9379 6.39615 28.9823 6.66785 29.1773 6.8627C29.3723 7.05756 29.644 7.10178 29.7842 6.96149Z" fill="#F6FAFD"/>
<path d="M33.6739 10.1944C34.234 9.63393 34.0555 8.54742 33.2752 7.76767C32.4949 6.98791 31.4083 6.81018 30.8482 7.37069C30.2881 7.9312 30.4665 9.01771 31.2468 9.79747C32.0271 10.5772 33.1138 10.755 33.6739 10.1944Z" fill="#F6FAFD"/>
<path d="M37.4327 17.826L36.6553 16.2695L32.3649 18.4147L29.8197 19.6878L29.7014 19.7469L29.7144 19.773C29.5452 19.8859 29.4219 20.0555 29.3666 20.2513C29.27 20.6236 29.22 21.0066 29.2179 21.3913C29.2179 23.3417 30.3631 24.8695 31.8266 24.8695C33.2901 24.8695 34.4353 23.3417 34.4353 21.3913C34.4345 20.7476 34.291 20.112 34.0153 19.5304L37.4327 17.826ZM18.2892 19.7695L18.3023 19.7434L18.184 19.6843L15.6388 18.4113L11.3457 16.2652L10.5684 17.826L13.9858 19.5347C13.7106 20.1151 13.5672 20.749 13.5658 21.3913C13.5658 23.3417 14.711 24.8695 16.1744 24.8695C17.6379 24.8695 18.7831 23.3417 18.7831 21.3913C18.7822 21.0055 18.7331 20.6214 18.6371 20.2478C18.5818 20.052 18.4584 19.8824 18.2892 19.7695Z" fill="#141E21"/>
<path d="M17.7904 20.4608C17.8721 20.7642 17.913 21.0771 17.9121 21.3913C17.9121 22.8347 17.1295 23.9999 16.173 23.9999C15.2165 23.9999 14.4339 22.8347 14.4339 21.3913C14.4185 20.9888 14.4828 20.5872 14.6231 20.2097C14.7633 19.8322 14.9768 19.486 15.2513 19.1913L17.7904 20.4608ZM33.5643 21.3913C33.5643 22.8347 32.7817 23.9999 31.8252 23.9999C30.8687 23.9999 30.086 22.8347 30.086 21.3913C30.0851 21.0771 30.1261 20.7642 30.2078 20.4608L32.7469 19.1913C33.0214 19.486 33.2348 19.8322 33.3751 20.2097C33.5154 20.5872 33.5797 20.9888 33.5643 21.3913Z" fill="#273941"/>
<path d="M30.087 34.4348H28.3479C28.3479 32.8591 26.4087 30.9565 24 30.9565C21.5913 30.9565 19.6522 32.8591 19.6522 34.4348H17.9131C17.9131 31.9722 20.5157 29.2174 24 29.2174C27.4844 29.2174 30.087 31.9722 30.087 34.4348Z" fill="#141E21"/>
<defs>
<linearGradient id="paint0_linear_4916_9445" x1="24" y1="4" x2="24" y2="44" gradientUnits="userSpaceOnUse">
<stop stop-color="#FE6161"/>
<stop offset="1" stop-color="#FF9956"/>
</linearGradient>
</defs>
</svg>
