<svg width="48" height="48" viewBox="0 0 48 48" fill="none" xmlns="http://www.w3.org/2000/svg">
<path d="M24 44C35.0457 44 44 35.0457 44 24C44 12.9543 35.0457 4 24 4C12.9543 4 4 12.9543 4 24C4 35.0457 12.9543 44 24 44Z" fill="#FFCE52"/>
<path d="M9.2168 25.7391C9.2168 28.626 15.8255 31.826 23.9994 31.826C32.1733 31.826 38.782 28.626 38.782 25.7391C38.7656 27.5262 38.3135 29.2823 37.4649 30.8551C36.6164 32.428 35.397 33.7701 33.9125 34.7652C31.0127 36.8134 27.5496 37.9131 23.9994 37.9131C20.4492 37.9131 16.9862 36.8134 14.0864 34.7652C12.6018 33.7701 11.3824 32.428 10.5339 30.8551C9.68533 29.2823 9.23323 27.5262 9.2168 25.7391Z" fill="#AE2D4C"/>
<path d="M38.782 25.7391C38.782 28.626 32.1733 31.826 23.9994 31.826C15.8255 31.826 9.2168 28.626 9.2168 25.7391C10.0864 26.6087 16.1733 27.4782 23.9994 27.4782C31.8255 27.4782 37.9125 26.6087 38.782 25.7391Z" fill="#F6FAFD"/>
<path d="M31.8255 22.2608C33.2662 22.2608 34.4342 20.7035 34.4342 18.7825C34.4342 16.8615 33.2662 15.3043 31.8255 15.3043C30.3847 15.3043 29.2168 16.8615 29.2168 18.7825C29.2168 20.7035 30.3847 22.2608 31.8255 22.2608Z" fill="#273941"/>
<path d="M16.1751 22.2608C17.6158 22.2608 18.7838 20.7035 18.7838 18.7825C18.7838 16.8615 17.6158 15.3043 16.1751 15.3043C14.7344 15.3043 13.5664 16.8615 13.5664 18.7825C13.5664 20.7035 14.7344 22.2608 16.1751 22.2608Z" fill="#273941"/>
<path d="M31.8251 21.3913C32.7856 21.3913 33.5642 20.2234 33.5642 18.7826C33.5642 17.3419 32.7856 16.1739 31.8251 16.1739C30.8646 16.1739 30.0859 17.3419 30.0859 18.7826C30.0859 20.2234 30.8646 21.3913 31.8251 21.3913Z" fill="#141E21"/>
<path d="M16.1727 21.3913C17.1332 21.3913 17.9119 20.2234 17.9119 18.7826C17.9119 17.3419 17.1332 16.1739 16.1727 16.1739C15.2122 16.1739 14.4336 17.3419 14.4336 18.7826C14.4336 20.2234 15.2122 21.3913 16.1727 21.3913Z" fill="#141E21"/>
<path d="M32.6948 18.7826C33.175 18.7826 33.5643 18.3933 33.5643 17.9131C33.5643 17.4328 33.175 17.0435 32.6948 17.0435C32.2145 17.0435 31.8252 17.4328 31.8252 17.9131C31.8252 18.3933 32.2145 18.7826 32.6948 18.7826Z" fill="#F6FAFD"/>
<path d="M17.0444 18.7826C17.5246 18.7826 17.9139 18.3933 17.9139 17.9131C17.9139 17.4328 17.5246 17.0435 17.0444 17.0435C16.5641 17.0435 16.1748 17.4328 16.1748 17.9131C16.1748 18.3933 16.5641 18.7826 17.0444 18.7826Z" fill="#F6FAFD"/>
<path d="M23.9994 33.5652C30.9229 33.5652 36.7064 31.2687 38.3194 28.8121C38.625 27.8164 38.7809 26.7807 38.782 25.7391C38.782 28.626 32.1733 31.826 23.9994 31.826C15.8255 31.826 9.2168 28.626 9.2168 25.7391C9.2179 26.7807 9.37381 27.8164 9.67941 28.8121C11.2924 31.2687 17.0759 33.5652 23.9994 33.5652Z" fill="#8A293D"/>
<path d="M37.4559 28.0478C37.826 27.7769 38.1351 27.4316 38.3635 27.0339C38.5919 26.6363 38.7345 26.1952 38.782 25.7391C37.9125 26.6087 31.8255 27.4782 23.9994 27.4782C16.1733 27.4782 10.0864 26.6087 9.2168 25.7391C9.26431 26.1952 9.40687 26.6363 9.63527 27.0339C9.86367 27.4316 10.1728 27.7769 10.5429 28.0478C12.889 28.6904 17.9124 29.2174 23.9994 29.2174C30.0864 29.2174 35.1098 28.6904 37.4559 28.0478Z" fill="#EDEDED"/>
<path d="M23.9997 6.60866C34.565 6.60866 43.1302 14.0061 43.1302 23.1304H43.978C43.7383 17.9931 41.5287 13.1455 37.8083 9.59467C34.088 6.04383 29.1427 4.06265 23.9997 4.06265C18.8568 4.06265 13.9115 6.04383 10.1911 9.59467C6.47075 13.1455 4.26121 17.9931 4.02148 23.1304H4.86931C4.86931 14.0061 13.4345 6.60866 23.9997 6.60866Z" fill="#FFE369"/>
<path d="M43.1304 23.1304C43.1304 32.2548 34.5652 39.6522 24 39.6522C13.4348 39.6522 4.86957 32.2548 4.86957 23.1304H4.02174C4.00957 23.4191 4 23.7087 4 24C4 29.3043 6.10714 34.3914 9.85786 38.1421C13.6086 41.8929 18.6957 44 24 44C29.3043 44 34.3914 41.8929 38.1421 38.1421C41.8929 34.3914 44 29.3043 44 24C44 23.7087 43.9904 23.4191 43.9783 23.1304H43.1304Z" fill="#FFB32B"/>
<path d="M36.0092 11.6622C36.2892 11.3819 36.2001 10.8388 35.8102 10.4491C35.4202 10.0594 34.877 9.97066 34.5969 10.2509C34.3169 10.5312 34.406 11.0743 34.796 11.464C35.1859 11.8537 35.7291 11.9424 36.0092 11.6622Z" fill="#F6FAFD"/>
<path d="M30.2178 7.39566C30.358 7.25536 30.3136 6.98367 30.1186 6.78881C29.9236 6.59396 29.6519 6.54973 29.5117 6.69003C29.3715 6.83033 29.4159 7.10202 29.6109 7.29688C29.8059 7.49173 30.0776 7.53596 30.2178 7.39566Z" fill="#F6FAFD"/>
<path d="M34.1085 10.6293C34.6686 10.0688 34.4901 8.98225 33.7098 8.2025C32.9295 7.42274 31.8429 7.24501 31.2827 7.80552C30.7226 8.36603 30.9011 9.45254 31.6814 10.2323C32.4617 11.0121 33.5483 11.1898 34.1085 10.6293Z" fill="#F6FAFD"/>
</svg>
