<svg width="72" height="72" viewBox="0 0 72 72" fill="none" xmlns="http://www.w3.org/2000/svg">
<path d="M61.0274 60.1617C67.2252 53.7437 70.7442 45.2049 70.868 36.2836C70.9919 27.3623 67.7112 18.7292 61.6938 12.1416L50.0402 22.7864C53.3497 26.4096 55.1541 31.1579 55.086 36.0646C55.0179 40.9713 53.0824 45.6676 49.6736 49.1975L61.0274 60.1617Z" fill="white"/>
<path d="M10.9082 11.774C4.71034 18.192 1.19133 26.7308 1.06751 35.6521C0.94369 44.5734 4.22437 53.2066 10.2417 59.7942L21.8954 49.1493C18.5858 45.5261 16.7815 40.7779 16.8496 35.8712C16.9177 30.9644 18.8531 26.2681 22.2619 22.7382L10.9082 11.774Z" fill="white"/>
</svg>
