<svg width="48" height="48" viewBox="0 0 48 48" fill="none" xmlns="http://www.w3.org/2000/svg">
<path d="M24 44C35.0457 44 44 35.0457 44 24C44 12.9543 35.0457 4 24 4C12.9543 4 4 12.9543 4 24C4 35.0457 12.9543 44 24 44Z" fill="#FFCE52"/>
<path d="M23.9997 6.60866C34.565 6.60866 43.1302 14.0061 43.1302 23.1304H43.978C43.7383 17.9931 41.5287 13.1455 37.8083 9.59467C34.088 6.04383 29.1427 4.06265 23.9997 4.06265C18.8568 4.06265 13.9115 6.04383 10.1911 9.59467C6.47075 13.1455 4.26121 17.9931 4.02148 23.1304H4.86931C4.86931 14.0061 13.4345 6.60866 23.9997 6.60866Z" fill="#FFE369"/>
<path d="M43.1304 23.1304C43.1304 32.2548 34.5652 39.6522 24 39.6522C13.4348 39.6522 4.86957 32.2548 4.86957 23.1304H4.02174C4.00957 23.4191 4 23.7087 4 24C4 29.3043 6.10714 34.3914 9.85786 38.1421C13.6086 41.8929 18.6957 44 24 44C29.3043 44 34.3914 41.8929 38.1421 38.1421C41.8929 34.3914 44 29.3043 44 24C44 23.7087 43.9904 23.4191 43.9783 23.1304H43.1304Z" fill="#FFB32B"/>
<path d="M36.0092 11.6622C36.2892 11.3819 36.2001 10.8388 35.8102 10.4491C35.4202 10.0594 34.877 9.97066 34.5969 10.2509C34.3169 10.5312 34.406 11.0743 34.796 11.464C35.1859 11.8537 35.7291 11.9424 36.0092 11.6622Z" fill="#F6FAFD"/>
<path d="M30.2178 7.39566C30.358 7.25536 30.3136 6.98367 30.1186 6.78881C29.9236 6.59396 29.6519 6.54973 29.5117 6.69003C29.3715 6.83033 29.4159 7.10202 29.6109 7.29688C29.8059 7.49173 30.0776 7.53596 30.2178 7.39566Z" fill="#F6FAFD"/>
<path d="M34.1085 10.6293C34.6686 10.0688 34.4901 8.98225 33.7098 8.2025C32.9295 7.42274 31.8429 7.24501 31.2827 7.80552C30.7226 8.36603 30.9011 9.45254 31.6814 10.2323C32.4617 11.0121 33.5483 11.1898 34.1085 10.6293Z" fill="#F6FAFD"/>
<path d="M32.6959 37.0434C32.6959 34.6434 28.809 32.6956 24.0003 32.6956C19.1916 32.6956 15.3046 34.6434 15.3046 37.0434L15.2177 37.1565C13.9134 36.3126 12.8405 35.1564 12.0964 33.7927C11.3523 32.4291 10.9606 30.9012 10.9568 29.3478C10.9269 28.8848 11.0809 28.4287 11.3854 28.0786C11.6899 27.7285 12.1202 27.5127 12.5829 27.4782C14.2177 28.4173 18.1394 28.3478 24.0003 28.3478C29.8611 28.3478 33.7829 28.4173 35.409 27.4782C35.8731 27.5108 36.3055 27.7257 36.6118 28.0759C36.9181 28.4262 37.0734 28.8834 37.0438 29.3478C37.0399 30.9012 36.6482 32.4291 35.9041 33.7927C35.16 35.1564 34.0872 36.3126 32.7829 37.1565L32.6959 37.0434Z" fill="#273941"/>
<path d="M32.697 37.0436L32.784 37.1566C30.1721 38.8486 27.1127 39.718 24.0014 39.6523C20.89 39.718 17.8306 38.8486 15.2188 37.1566L15.3057 37.0436C15.3057 34.6436 19.1927 32.6957 24.0014 32.6957C28.8101 32.6957 32.697 34.6436 32.697 37.0436Z" fill="#AE2D4C"/>
<path d="M17.4785 10.9566C18.0164 10.9509 18.5496 11.057 19.0443 11.2682C19.539 11.4794 19.9845 11.7911 20.3524 12.1835C20.7203 12.5759 21.0026 13.0405 21.1815 13.5479C21.3604 14.0552 21.4319 14.5941 21.3915 15.1305C21.3915 21.3914 14.8698 24.8696 13.5654 24.8696C12.9393 24.8696 6.27847 21.6522 5.76543 15.8349C5.74804 15.6001 5.73934 15.3653 5.73934 15.1305C5.6686 14.1864 5.94633 13.2492 6.51999 12.496C7.09365 11.7429 7.92344 11.2262 8.85239 11.0436C9.11486 10.9841 9.38327 10.9549 9.65239 10.9566C11.6089 10.9566 12.9133 12.3479 13.5654 14.4349C14.2176 12.3479 15.522 10.9566 17.4785 10.9566ZM42.2611 15.1305C42.2611 15.3624 42.2524 15.5972 42.235 15.8349C41.7741 21.6522 35.6872 24.8696 34.435 24.8696C33.7828 24.8696 26.6089 21.3914 26.6089 15.1305C26.5685 14.5941 26.64 14.0552 26.8189 13.5479C26.9978 13.0405 27.2801 12.5759 27.648 12.1835C28.016 11.7911 28.4614 11.4794 28.9561 11.2682C29.4508 11.057 29.9841 10.9509 30.5219 10.9566C32.4785 10.9566 33.7828 12.3479 34.435 14.4349C35.0872 12.3479 36.3915 10.9566 38.348 10.9566C38.6172 10.9549 38.8856 10.9841 39.148 11.0436C40.077 11.2262 40.9068 11.7429 41.4804 12.496C42.0541 13.2492 42.3318 14.1864 42.2611 15.1305Z" fill="#CF4054"/>
<path d="M12.5829 29.2173C14.2177 30.1565 18.1394 30.0869 24.0003 30.0869C29.8611 30.0869 33.7829 30.1565 35.409 29.2173C35.7802 29.2354 36.1349 29.3764 36.4172 29.6182C36.6995 29.8601 36.8933 30.1889 36.9681 30.553C37.0186 30.1532 37.0438 29.7507 37.0438 29.3478C37.0734 28.8834 36.9181 28.4262 36.6118 28.0759C36.3055 27.7257 35.8731 27.5108 35.409 27.4782C33.7829 28.4173 29.8611 28.3478 24.0003 28.3478C18.1394 28.3478 14.2177 28.4173 12.5829 27.4782C12.1202 27.5127 11.6899 27.7285 11.3854 28.0786C11.0809 28.4287 10.9269 28.8848 10.9568 29.3478C10.9567 29.7504 10.9819 30.1526 11.0324 30.5521C11.1062 30.1892 11.2986 29.8611 11.5793 29.6194C11.8599 29.3778 12.213 29.2363 12.5829 29.2173Z" fill="#141E21"/>
<path d="M32.2892 35.727C29.7808 37.2054 26.9126 37.9619 24.0014 37.9131C21.0901 37.9619 18.222 37.2054 15.7135 35.727C15.454 36.1176 15.3125 36.5747 15.3057 37.0435L15.2188 37.1566C17.8306 38.8486 20.89 39.7179 24.0014 39.6522C27.1127 39.7179 30.1721 38.8486 32.784 37.1566L32.697 37.0435C32.6903 36.5747 32.5487 36.1176 32.2892 35.727Z" fill="#8A293D"/>
<path d="M34.4349 24.8696C33.8175 24.8696 27.3645 21.7478 26.6775 16.1035C26.6358 16.3568 26.6128 16.6129 26.6088 16.8696C26.6088 23.1305 33.7827 26.6087 34.4349 26.6087C35.6871 26.6087 41.774 23.3913 42.2349 17.5739C42.2523 17.3363 42.261 17.1015 42.261 16.8696C42.2604 16.6055 42.2401 16.3419 42.2001 16.0809C41.5871 21.7391 35.6688 24.8696 34.4349 24.8696ZM13.5653 24.8696C12.948 24.8696 6.49491 21.7478 5.80795 16.1035C5.76624 16.3568 5.74328 16.6129 5.73926 16.8696C5.73926 23.1305 12.9132 26.6087 13.5653 26.6087C14.8175 26.6087 20.9045 23.3913 21.3653 17.5739C21.3827 17.3363 21.3914 17.1015 21.3914 16.8696C21.3909 16.6055 21.3705 16.3419 21.3306 16.0809C20.7175 21.7391 14.7993 24.8696 13.5653 24.8696Z" fill="#FBB40A"/>
<path d="M38.348 10.9566C36.3915 10.9566 35.0872 12.3479 34.435 14.4349C34.942 12.8696 35.9567 11.8262 37.4785 11.8262C37.8888 11.8144 38.2971 11.888 38.6774 12.0424C39.0578 12.1967 39.4019 12.4283 39.6881 12.7227C39.9742 13.017 40.1961 13.3675 40.3396 13.752C40.4832 14.1366 40.5452 14.5468 40.522 14.9566C40.522 19.6522 35.4498 22.2609 34.435 22.2609C33.948 22.2609 28.7672 19.8479 28.368 15.4844C28.3548 15.3088 28.3482 15.1327 28.348 14.9566C28.3034 14.2373 28.5257 13.5267 28.9724 12.9611C29.4191 12.3955 30.0588 12.0146 30.7689 11.8914C30.9734 11.8466 31.1822 11.8247 31.3915 11.8262C32.9133 11.8262 33.928 12.8696 34.435 14.4349C33.7828 12.3479 32.4785 10.9566 30.522 10.9566C30.2528 10.9549 29.9844 10.9841 29.722 11.0436C28.793 11.2262 27.9632 11.7429 27.3896 12.496C26.8159 13.2492 26.5382 14.1864 26.6089 15.1305C26.6089 15.3624 26.6176 15.5972 26.635 15.8349C27.148 21.6522 33.8089 24.8696 34.435 24.8696C35.7393 24.8696 42.2611 21.3914 42.2611 15.1305C42.3015 14.5941 42.23 14.0552 42.0511 13.5479C41.8722 13.0405 41.5899 12.5759 41.2219 12.1835C40.854 11.7911 40.4086 11.4794 39.9139 11.2682C39.4191 11.057 38.8859 10.9509 38.348 10.9566ZM17.4785 10.9566C15.522 10.9566 14.2176 12.3479 13.5654 14.4349C14.0724 12.8696 15.0872 11.8262 16.6089 11.8262C17.0192 11.8144 17.4275 11.888 17.8078 12.0424C18.1882 12.1967 18.5324 12.4283 18.8185 12.7227C19.1046 13.017 19.3265 13.3675 19.47 13.752C19.6136 14.1366 19.6757 14.5468 19.6524 14.9566C19.6524 19.6522 14.5802 22.2609 13.5654 22.2609C13.0785 22.2609 7.8976 19.8479 7.49847 15.4844C7.48533 15.3088 7.47866 15.1327 7.47847 14.9566C7.43381 14.2373 7.65613 13.5267 8.10284 12.9611C8.54954 12.3955 9.18923 12.0146 9.89934 11.8914C10.1038 11.8466 10.3126 11.8247 10.522 11.8262C12.0437 11.8262 13.0585 12.8696 13.5654 14.4349C12.9133 12.3479 11.6089 10.9566 9.65239 10.9566C9.38327 10.9549 9.11486 10.9841 8.85239 11.0436C7.92344 11.2262 7.09365 11.7429 6.51999 12.496C5.94633 13.2492 5.6686 14.1864 5.73934 15.1305C5.73934 15.3624 5.74804 15.5972 5.76543 15.8349C6.27847 21.6522 12.9393 24.8696 13.5654 24.8696C14.8698 24.8696 21.3915 21.3914 21.3915 15.1305C21.4319 14.5941 21.3604 14.0552 21.1815 13.5479C21.0026 13.0405 20.7203 12.5759 20.3524 12.1835C19.9845 11.7911 19.539 11.4794 19.0443 11.2682C18.5496 11.057 18.0164 10.9509 17.4785 10.9566Z" fill="#AE2D4C"/>
<path d="M40.3568 15.1398C40.6369 14.8596 40.5478 14.3164 40.1578 13.9267C39.7678 13.537 39.2247 13.4483 38.9446 13.7286C38.6645 14.0088 38.7536 14.5519 39.1436 14.9416C39.5336 15.3313 40.0768 15.4201 40.3568 15.1398Z" fill="#F6FAFD"/>
<path d="M38.9151 13.4833C39.0553 13.343 39.0108 13.0713 38.8158 12.8765C38.6209 12.6816 38.3491 12.6374 38.2089 12.7777C38.0687 12.918 38.1131 13.1897 38.3081 13.3845C38.5031 13.5794 38.7749 13.6236 38.9151 13.4833Z" fill="#F6FAFD"/>
<path d="M19.4897 15.1404C19.7697 14.8601 19.6806 14.317 19.2906 13.9273C18.9006 13.5376 18.3575 13.4488 18.0774 13.7291C17.7973 14.0093 17.8865 14.5525 18.2764 14.9422C18.6664 15.3319 19.2096 15.4206 19.4897 15.1404Z" fill="#F6FAFD"/>
<path d="M18.0449 13.4826C18.1851 13.3423 18.1407 13.0706 17.9457 12.8758C17.7507 12.6809 17.479 12.6367 17.3388 12.777C17.1986 12.9173 17.243 13.189 17.438 13.3839C17.633 13.5787 17.9047 13.6229 18.0449 13.4826Z" fill="#F6FAFD"/>
</svg>
