<svg width="48" height="48" viewBox="0 0 48 48" fill="none" xmlns="http://www.w3.org/2000/svg">
<path d="M24 44C35.0457 44 44 35.0457 44 24C44 12.9543 35.0457 4 24 4C12.9543 4 4 12.9543 4 24C4 35.0457 12.9543 44 24 44Z" fill="#FFCE52"/>
<path d="M21.3915 34.4469L19.6523 34.4348C19.6523 31.6887 25.6654 30.9565 29.2176 30.9565V32.6956C24.1228 32.6956 21.5193 33.9643 21.3915 34.4469Z" fill="#273941"/>
<path d="M37.1645 16.974C37.128 16.9096 37.0828 16.8505 37.0428 16.7879V17.9131C37.0428 18.3743 36.8595 18.8167 36.5334 19.1428C36.2072 19.469 35.7649 19.6522 35.3036 19.6522C34.8424 19.6522 34.4 19.469 34.0739 19.1428C33.7477 18.8167 33.5645 18.3743 33.5645 17.9131V16.174H28.8167C27.9523 17.1259 27.4747 18.3664 27.4776 19.6522C27.4776 21.0359 28.0272 22.363 29.0057 23.3415C29.9841 24.3199 31.3112 24.8696 32.6949 24.8696C34.0787 24.8696 35.4057 24.3199 36.3842 23.3415C37.3626 22.363 37.9123 21.0359 37.9123 19.6522C37.9157 18.7075 37.6568 17.7803 37.1645 16.974Z" fill="#F6FAFD"/>
<path d="M35.3055 19.6522C35.7668 19.6522 36.2091 19.469 36.5353 19.1428C36.8614 18.8167 37.0447 18.3743 37.0447 17.9131V16.7879C36.9062 16.57 36.7491 16.3646 36.5751 16.174H33.5664V17.9131C33.5664 18.3743 33.7496 18.8167 34.0758 19.1428C34.4019 19.469 34.8443 19.6522 35.3055 19.6522Z" fill="#141E21"/>
<path d="M19.7729 16.974C19.7364 16.9096 19.6912 16.8505 19.6512 16.7879V17.9131C19.6512 18.3743 19.4679 18.8167 19.1418 19.1428C18.8156 19.469 18.3733 19.6522 17.912 19.6522C17.4508 19.6522 17.0084 19.469 16.6823 19.1428C16.3561 18.8167 16.1729 18.3743 16.1729 17.9131V16.174H11.4251C10.5607 17.1259 10.0831 18.3664 10.0859 19.6522C10.0859 21.0359 10.6356 22.363 11.6141 23.3415C12.5925 24.3199 13.9196 24.8696 15.3033 24.8696C16.6871 24.8696 18.0141 24.3199 18.9926 23.3415C19.971 22.363 20.5207 21.0359 20.5207 19.6522C20.5241 18.7075 20.2652 17.7803 19.7729 16.974Z" fill="#F6FAFD"/>
<path d="M17.9139 19.6522C18.3752 19.6522 18.8175 19.469 19.1437 19.1428C19.4698 18.8167 19.6531 18.3743 19.6531 17.9131V16.7879C19.5146 16.57 19.3575 16.3646 19.1835 16.174H16.1748V17.9131C16.1748 18.3743 16.358 18.8167 16.6842 19.1428C17.0103 19.469 17.4527 19.6522 17.9139 19.6522Z" fill="#141E21"/>
<path d="M23.9997 6.60866C34.565 6.60866 43.1302 14.0061 43.1302 23.1304H43.978C43.7383 17.9931 41.5287 13.1455 37.8083 9.59467C34.088 6.04383 29.1427 4.06265 23.9997 4.06265C18.8568 4.06265 13.9115 6.04383 10.1911 9.59467C6.47075 13.1455 4.26121 17.9931 4.02148 23.1304H4.86931C4.86931 14.0061 13.4345 6.60866 23.9997 6.60866Z" fill="#FFE369"/>
<path d="M43.1304 23.1305C43.1304 32.2548 34.5652 39.6522 24 39.6522C13.4348 39.6522 4.86957 32.2548 4.86957 23.1305H4.02174C4.00957 23.4192 4 23.7087 4 24C4 29.3044 6.10714 34.3914 9.85786 38.1422C13.6086 41.8929 18.6957 44 24 44C29.3043 44 34.3914 41.8929 38.1421 38.1422C41.8929 34.3914 44 29.3044 44 24C44 23.7087 43.9904 23.4192 43.9783 23.1305H43.1304Z" fill="#FFB32B"/>
<path d="M35.5756 11.2273C35.8557 10.9471 35.7665 10.404 35.3766 10.0142C34.9866 9.62454 34.4434 9.53581 34.1633 9.81607C33.8833 10.0963 33.9724 10.6394 34.3624 11.0291C34.7524 11.4189 35.2955 11.5076 35.5756 11.2273Z" fill="#F6FAFD"/>
<path d="M29.7842 6.96149C29.9244 6.82119 29.88 6.54949 29.685 6.35464C29.49 6.15978 29.2183 6.11556 29.0781 6.25586C28.9379 6.39615 28.9823 6.66785 29.1773 6.8627C29.3723 7.05756 29.644 7.10178 29.7842 6.96149Z" fill="#F6FAFD"/>
<path d="M33.6729 10.1944C34.233 9.63393 34.0546 8.54742 33.2743 7.76767C32.4939 6.98791 31.4073 6.81018 30.8472 7.37069C30.2871 7.9312 30.4656 9.01771 31.2459 9.79747C32.0262 10.5772 33.1128 10.755 33.6729 10.1944Z" fill="#F6FAFD"/>
<path d="M32.6946 24.8695C31.4648 24.8683 30.2748 24.4328 29.3349 23.6397C28.3949 22.8465 27.7653 21.7468 27.5573 20.5347C27.4253 21.2852 27.4593 22.0555 27.6569 22.7914C27.8545 23.5274 28.2109 24.2111 28.701 24.7945C29.1912 25.378 29.8032 25.847 30.494 26.1685C31.1849 26.4901 31.9377 26.6564 32.6997 26.6559C33.4618 26.6553 34.2144 26.4878 34.9047 26.1652C35.5951 25.8425 36.2064 25.3726 36.6956 24.7884C37.1849 24.2043 37.5403 23.52 37.7367 22.7837C37.9332 22.0475 37.966 21.2772 37.8329 20.5269C37.6265 21.7406 36.9975 22.8422 36.0572 23.6369C35.1169 24.4317 33.9258 24.8682 32.6946 24.8695ZM15.3033 24.8695C14.0735 24.8683 12.8835 24.4328 11.9436 23.6397C11.0036 22.8465 10.374 21.7468 10.1659 20.5347C10.034 21.2852 10.0679 22.0555 10.2655 22.7914C10.4631 23.5274 10.8196 24.2111 11.3097 24.7945C11.7999 25.378 12.4119 25.847 13.1027 26.1685C13.7935 26.4901 14.5464 26.6564 15.3084 26.6559C16.0704 26.6553 16.8231 26.4878 17.5134 26.1652C18.2038 25.8425 18.8151 25.3726 19.3043 24.7884C19.7936 24.2043 20.149 23.52 20.3454 22.7837C20.5419 22.0475 20.5747 21.2772 20.4416 20.5269C20.2352 21.7406 19.6062 22.8422 18.6659 23.6369C17.7256 24.4317 16.5345 24.8682 15.3033 24.8695ZM33.5642 16.1738H36.5729C36.7469 16.3645 36.904 16.5699 37.0425 16.7877C37.0825 16.8503 37.1294 16.9095 37.1642 16.9738C37.5872 17.6741 37.8351 18.4661 37.8868 19.2825C37.9025 19.1182 37.912 18.9512 37.912 18.7825C37.9154 17.8378 37.6565 16.9106 37.1642 16.1043C37.1277 16.0399 37.0825 15.9808 37.0425 15.9182C36.904 15.7003 36.7469 15.4949 36.5729 15.3043H28.8164C27.952 16.2562 27.4744 17.4967 27.4773 18.7825C27.4774 18.9667 27.4873 19.1507 27.5068 19.3338C27.5709 18.1621 28.0329 17.0474 28.8164 16.1738H33.5642ZM16.1729 16.1738H19.1816C19.3556 16.3645 19.5127 16.5699 19.6512 16.7877C19.6912 16.8503 19.7381 16.9095 19.7729 16.9738C20.1959 17.6741 20.4438 18.4661 20.4955 19.2825C20.5112 19.1182 20.5207 18.9512 20.5207 18.7825C20.5241 17.8378 20.2652 16.9106 19.7729 16.1043C19.7364 16.0399 19.6912 15.9808 19.6512 15.9182C19.5127 15.7003 19.3556 15.4949 19.1816 15.3043H11.4251C10.5607 16.2562 10.0831 17.4967 10.0859 18.7825C10.0861 18.9667 10.096 19.1507 10.1155 19.3338C10.1796 18.1621 10.6416 17.0474 11.4251 16.1738H16.1729Z" fill="#FBB40A"/>
</svg>
